<?xml version="1.0" standalone="no"?>
<!DOCTYPE svg PUBLIC "-//W3C//DTD SVG 20010904//EN"
 "http://www.w3.org/TR/2001/REC-SVG-20010904/DTD/svg10.dtd">
<svg version="1.0" xmlns="http://www.w3.org/2000/svg"
 width="1024.000000pt" height="1024.000000pt" viewBox="0 0 1024.000000 1024.000000"
 preserveAspectRatio="xMidYMid meet">

<g transform="translate(0.000000,1024.000000) scale(0.100000,-0.100000)"
fill="#000000" stroke="none">
<path d="M1597 6604 c-564 -87 -1005 -520 -1102 -1078 -20 -115 -20 -337 0
-452 69 -396 327 -752 688 -949 39 -22 72 -34 77 -29 5 5 68 244 141 531 l132
523 355 2 356 3 22 90 c13 50 26 100 29 113 l5 22 -355 0 c-335 0 -356 1 -351
18 9 31 96 374 96 378 0 2 247 4 548 4 l548 0 27 -71 c57 -146 71 -229 71
-414 0 -195 -15 -278 -81 -432 -130 -300 -420 -543 -747 -624 -142 -36 -382
-37 -522 -3 -19 5 -23 -4 -48 -102 -15 -59 -23 -111 -19 -115 20 -20 240 -41
368 -36 349 15 633 134 876 365 255 242 390 540 406 892 24 536 -280 1033
-771 1260 -224 104 -503 143 -749 104z m379 -229 c225 -39 418 -136 586 -295
l73 -69 -562 -1 c-310 0 -563 -2 -563 -5 0 -3 -88 -354 -195 -780 -107 -425
-195 -777 -195 -782 0 -15 -152 142 -200 207 -285 384 -285 914 0 1300 166
224 441 389 716 429 96 14 245 12 340 -4z"/>
<path d="M7480 5874 c-158 -34 -304 -149 -373 -294 -44 -94 -57 -156 -57 -273
0 -172 44 -281 160 -398 86 -86 165 -131 275 -154 275 -58 544 66 655 300 37
79 50 146 50 258 0 170 -51 300 -159 407 -142 140 -349 198 -551 154z m256
-219 c78 -24 143 -80 184 -159 34 -67 35 -72 35 -185 0 -107 -2 -121 -28 -173
-72 -148 -261 -221 -425 -164 -69 24 -153 100 -189 174 -35 73 -45 212 -19
290 34 101 110 183 203 217 51 18 178 19 239 0z"/>
<path d="M3581 5315 l-2 -555 120 0 121 0 0 215 0 215 203 2 202 3 3 93 3 92
-204 0 c-112 0 -206 2 -208 4 -2 2 -3 65 -1 140 l3 136 230 0 229 0 0 105 0
105 -348 0 -349 0 -2 -555z"/>
<path d="M4387 5863 c-4 -3 -7 -253 -7 -555 l0 -548 110 0 110 0 0 555 0 555
-103 0 c-57 0 -107 -3 -110 -7z"/>
<path d="M6590 5665 l0 -115 -70 0 -70 0 0 -90 0 -90 70 0 69 0 -2 -212 c-2
-211 -2 -213 24 -269 47 -100 120 -138 267 -139 l93 0 -3 93 c-2 74 -6 91 -17
89 -32 -7 -114 11 -132 29 -17 17 -19 36 -19 214 l0 195 75 0 75 0 0 90 0 90
-75 0 -75 0 0 115 0 115 -105 0 -105 0 0 -115z"/>
<path d="M5025 5557 c-216 -56 -342 -270 -294 -499 25 -115 105 -223 201 -270
194 -95 431 -34 529 136 16 28 29 54 29 59 0 4 -47 7 -103 7 -94 0 -106 -2
-123 -21 -47 -54 -150 -74 -221 -44 -63 26 -93 64 -108 133 l-7 32 291 0 291
0 0 85 c0 176 -87 308 -241 366 -65 25 -180 32 -244 16z m168 -171 c44 -19 95
-75 103 -114 l7 -32 -183 0 -182 0 6 31 c19 98 149 158 249 115z"/>
<path d="M5922 5559 c-146 -28 -270 -155 -303 -310 -16 -73 -6 -192 21 -264
32 -82 132 -183 211 -213 200 -74 417 -1 505 171 l24 47 -103 0 c-94 0 -106
-2 -123 -21 -49 -56 -155 -74 -229 -40 -48 22 -69 44 -90 94 -30 71 -47 67
276 67 l292 0 -5 99 c-4 82 -10 109 -35 163 -75 161 -253 244 -441 207z m194
-194 c39 -30 74 -80 74 -107 0 -17 -15 -18 -184 -18 l-185 0 9 30 c14 48 50
91 94 112 58 27 144 20 192 -17z"/>
<path d="M8667 5560 c-47 -12 -105 -42 -134 -69 -30 -29 -33 -27 -33 19 l0 40
-104 0 -104 0 -1 -550 -2 -550 106 0 105 0 0 195 0 195 46 -35 c169 -130 437
-49 529 160 23 50 28 71 39 160 6 54 -13 166 -38 221 -71 154 -257 252 -409
214z m136 -198 c18 -10 45 -37 61 -59 24 -35 30 -55 34 -116 6 -92 -15 -160
-61 -205 -40 -39 -75 -52 -137 -52 -125 0 -200 84 -200 225 0 111 48 188 136
221 48 18 124 11 167 -14z"/>
<path d="M9403 5556 c-181 -46 -260 -234 -156 -373 35 -48 95 -78 217 -111
119 -33 149 -53 149 -102 0 -45 -31 -72 -90 -77 -62 -5 -111 19 -138 69 l-20
38 -88 0 -87 0 6 -27 c36 -153 138 -228 309 -228 108 0 175 24 235 84 104 104
90 278 -28 355 -20 14 -86 38 -146 54 -110 30 -158 55 -164 86 -20 102 153
133 200 36 l15 -32 87 -1 c82 -2 86 -1 86 19 0 66 -73 160 -149 193 -63 27
-170 35 -238 17z"/>
</g>
</svg>
